<svg width="50" height="71" viewBox="0 0 71 65" fill="none" xmlns="http://www.w3.org/2000/svg">
<g clip-path="url(#clip0_411_565)">
<path d="M35.7812 71.2443C55.1975 71.2443 70.9375 55.5043 70.9375 36.0881C70.9375 16.6718 55.1975 0.931824 35.7812 0.931824C16.365 0.931824 0.625 16.6718 0.625 36.0881C0.625 55.5043 16.365 71.2443 35.7812 71.2443Z" fill="#F0F0F0"/>
<path d="M35.7812 26.9168H69.7264C68.8449 23.6464 67.5051 20.5646 65.7775 17.7455H35.7812V26.9168Z" fill="#338AF3"/>
<path d="M13.897 63.6017H57.6656C60.874 61.0462 63.6256 57.9423 65.7775 54.4304H5.78516C7.93724 57.9422 10.6888 61.0462 13.897 63.6017V63.6017Z" fill="#338AF3"/>
<path d="M35.7812 0.931824V8.57446H57.6656C51.6602 3.79157 44.0552 0.931824 35.7812 0.931824V0.931824Z" fill="#338AF3"/>
<path d="M35.7812 26.9168H69.7264C68.8449 23.6464 67.5051 20.5646 65.7775 17.7455H35.7812V26.9168Z" fill="#338AF3"/>
<path d="M0.625 36.0881C0.625 39.2613 1.04797 42.335 1.83611 45.2593H69.7265C70.5145 42.335 70.9375 39.2613 70.9375 36.0881H0.625Z" fill="#338AF3"/>
<path d="M31.1959 21.5066L26.9022 23.5263L29.1886 27.6846L24.5262 26.7928L23.9354 31.5025L20.6882 28.0385L17.4406 31.5025L16.8499 26.7928L12.1876 27.6844L14.4739 23.5262L10.1804 21.5066L14.474 19.4872L12.1876 15.3289L16.8498 16.2207L17.4407 11.511L20.6882 14.975L23.9356 11.511L24.5262 16.2207L29.1887 15.3289L26.9023 19.4873L31.1959 21.5066Z" fill="#FFDA44"/>
</g>
<defs>
<clipPath id="clip0_411_565">
<rect width="70.3125" height="70.3125" fill="white" transform="translate(0.625 0.931824)"/>
</clipPath>
</defs>
</svg>
