<svg width="50" height="71" viewBox="0 0 71 65" fill="none" xmlns="http://www.w3.org/2000/svg">
<g clip-path="url(#clip0_411_558)">
<path d="M0.25 36.0881C0.25 51.2039 9.79053 64.0902 23.1778 69.0575L26.235 36.0879L23.1778 3.11853C9.79053 8.086 0.25 20.9721 0.25 36.0881Z" fill="#6DA544"/>
<path d="M70.5625 36.0881C70.5625 16.6719 54.8223 0.931824 35.4062 0.931824C31.1059 0.931824 26.9864 1.7054 23.1777 3.11852V69.0576C26.9864 70.4709 31.1059 71.2443 35.4062 71.2443C54.8223 71.2443 70.5625 55.5042 70.5625 36.0881Z" fill="#D80027"/>
<path d="M23.1781 48.3163C29.9316 48.3163 35.4063 42.8415 35.4063 36.0881C35.4063 29.3346 29.9316 23.8599 23.1781 23.8599C16.4247 23.8599 10.95 29.3346 10.95 36.0881C10.95 42.8415 16.4247 48.3163 23.1781 48.3163Z" fill="#FFDA44"/>
<path d="M16.2996 29.9739V37.6166C16.2996 41.4154 19.379 44.495 23.178 44.495C26.9769 44.495 30.0564 41.4155 30.0564 37.6166V29.9739H16.2996Z" fill="#D80027"/>
<path d="M23.1779 39.9094C21.9136 39.9094 20.885 38.8808 20.885 37.6165V34.5596H25.4706V37.6167C25.4706 38.8808 24.442 39.9094 23.1779 39.9094Z" fill="#F0F0F0"/>
</g>
<defs>
<clipPath id="clip0_411_558">
<rect width="70.3125" height="70.3125" fill="white" transform="translate(0.25 0.931824)"/>
</clipPath>
</defs>
</svg>
