<svg width="50" height="51" viewBox="0 0 71 72" fill="none" xmlns="http://www.w3.org/2000/svg">
<g clip-path="url(#clip0_411_466)">
<path d="M50.6915 4.23843C46.0695 2.00354 40.8843 0.75 35.4062 0.75C29.9281 0.75 24.7429 2.00354 20.1209 4.23843L17.0638 35.9062L20.1209 67.5741C24.7429 69.809 29.9281 71.0625 35.4062 71.0625C40.8843 71.0625 46.0695 69.809 50.6915 67.5741L53.7486 35.9062L50.6915 4.23843Z" fill="#D80027"/>
<path d="M35.4059 23.678L38.4409 33.019H48.2637L40.3173 38.7929L43.3524 48.1344L35.4059 42.361L27.4593 48.1344L30.495 38.7929L22.5486 33.019H32.3708L35.4059 23.678Z" fill="#FFDA44"/>
<path d="M20.121 4.23965C8.36148 9.9259 0.25 21.9682 0.25 35.9062C0.25 49.8443 8.36148 61.8866 20.121 67.5728V4.23965Z" fill="#496E2D"/>
<path d="M50.6914 4.23965V67.5728C62.4509 61.8866 70.5624 49.8442 70.5624 35.9062C70.5624 21.9683 62.4509 9.9259 50.6914 4.23965Z" fill="#FFDA44"/>
</g>
<defs>
<clipPath id="clip0_411_466">
<rect width="70.3125" height="70.3125" fill="white" transform="translate(0.25 0.75)"/>
</clipPath>
</defs>
</svg>
